<svg id="visual" viewBox="0 0 900 50" width="900" height="50" xmlns="http://www.w3.org/2000/svg" xmlns:xlink="http://www.w3.org/1999/xlink" version="1.1"><rect x="0" y="0" width="900" height="50" fill="#ffffff"></rect><path d="M0 35L12.5 31.7C25 28.3 50 21.7 75 21.2C100 20.7 125 26.3 150 26.8C175 27.3 200 22.7 225 21.3C250 20 275 22 300 24.7C325 27.3 350 30.7 375 31.8C400 33 425 32 450 31.8C475 31.7 500 32.3 525 30.5C550 28.7 575 24.3 600 22C625 19.7 650 19.3 675 21C700 22.7 725 26.3 750 26.7C775 27 800 24 825 22.5C850 21 875 21 887.5 21L900 21L900 0L887.5 0C875 0 850 0 825 0C800 0 775 0 750 0C725 0 700 0 675 0C650 0 625 0 600 0C575 0 550 0 525 0C500 0 475 0 450 0C425 0 400 0 375 0C350 0 325 0 300 0C275 0 250 0 225 0C200 0 175 0 150 0C125 0 100 0 75 0C50 0 25 0 12.5 0L0 0Z" fill="#be00ff" stroke-linecap="round" stroke-linejoin="miter"></path></svg>